PathFileType	4	(X/Y/Z)	c:/Users/goper/Files/vsCode/490R/osim_files/C07/C07_SSWS_04.trc
DataRate	CameraRate	NumFrames	NumMarkers	Units                	OrigDataRate	OrigDataStartFrame	OrigNumFrames
250.00	250.00	9	36	mm	250.0	2365	3153
                Frame#	Time	LPSIS			LASIS			LTH1			LTH2			LTH3			LTH4			LLFE			LMFE			LSH1			LSH2			LSH3			LSH4			LLMAL			LMMAL			LCAL			LMTP5			LTOE			LMTP1			RPSIS			RASIS			RTH1			RTH2			RTH3			RTH4			RLFE			RMFE			RSH1			RSH2			RSH3			RSH4			RLMAL			RMMAL			RCAL			RMTP1			RTOE			RMTP5		
		X1	Y1	Z1	X2	Y2	Z2	X3	Y3	Z3	X4	Y4	Z4	X5	Y5	Z5	X6	Y6	Z6	X7	Y7	Z7	X8	Y8	Z8	X9	Y9	Z9	X10	Y10	Z10	X11	Y11	Z11	X12	Y12	Z12	X13	Y13	Z13	X14	Y14	Z14	X15	Y15	Z15	X16	Y16	Z16	X17	Y17	Z17	X18	Y18	Z18	X19	Y19	Z19	X20	Y20	Z20	X21	Y21	Z21	X22	Y22	Z22	X23	Y23	Z23	X24	Y24	Z24	X25	Y25	Z25	X26	Y26	Z26	X27	Y27	Z27	X28	Y28	Z28	X29	Y29	Z29	X30	Y30	Z30	X31	Y31	Z31	X32	Y32	Z32	X33	Y33	Z33	X34	Y34	Z34	X35	Y35	Z35	X36	Y36	Z36

2365	9.45600	-600.89874	1001.53497	859.09100	-433.42410	987.00140	773.82642	-469.75928	785.53912	728.01166	-448.55637	710.07715	727.34924	-427.17978	637.61072	737.14697	-372.00558	732.86749	744.22186	0.00000	0.00000	0.00000	-426.22958	511.82590	755.20532	-422.28265	317.89078	748.07922	-428.93521	271.07272	764.70312	-384.12534	331.38571	760.06915	0.00000	0.00000	0.00000	-394.23843	96.19983	807.33722	-369.44006	123.68409	879.49750	-447.31100	41.01323	860.19342	-268.82831	37.22795	773.89600	-208.93556	49.46748	824.62634	-236.32385	36.53131	877.17218	-592.98016	998.43188	957.15503	-431.00153	960.22198	1028.48914	-470.73929	801.94916	1079.54114	-462.07596	724.17059	1081.71204	-456.05154	642.53497	1075.61011	-393.43430	730.12280	1044.60559	-475.09988	469.65140	1047.14355	-471.22568	479.05945	930.34052	-641.28101	391.26376	1059.16785	-657.60669	337.33826	1059.87439	-600.85504	345.87668	1053.85632	0.00000	0.00000	0.00000	-807.78485	253.44502	1018.01886	-782.01257	236.11186	939.07629	-867.82330	282.99503	970.20667	-808.05530	88.42551	915.73114	-792.87769	63.71677	962.99829	-830.51489	92.13758	1023.08032
2366	9.46000	-596.75354	1001.97760	858.45813	-429.07349	987.44720	773.26880	-466.70416	785.89777	727.46271	-445.96686	710.26013	726.71320	-424.91650	637.72400	736.41840	-369.09250	732.73083	743.24854	0.00000	0.00000	0.00000	-423.91940	512.11499	755.06097	-420.69913	318.29428	748.00250	-427.83139	271.35486	764.75702	-382.54199	331.45508	760.19623	0.00000	0.00000	0.00000	-394.17535	96.26334	807.42987	-369.30466	123.73021	879.58887	-447.24875	41.03977	860.16455	-268.78876	37.25950	773.87177	-208.91794	49.50002	824.63232	-236.23793	36.58500	877.10480	-588.92664	998.92712	956.53040	-426.94434	961.10284	1027.94275	-465.88303	803.51172	1079.99109	-456.05057	724.90283	1081.26379	-448.38654	643.30652	1074.71729	-386.70676	731.67059	1043.82483	-464.94272	470.60623	1046.47327	-462.17361	480.00125	929.74609	-630.88440	392.71866	1059.32483	-647.73541	338.90628	1060.04529	-590.73853	347.25772	1053.54211	0.00000	0.00000	0.00000	-798.62225	256.34164	1018.79523	-773.27509	238.27953	939.83362	-856.30756	287.11014	970.91882	-801.92261	90.72997	916.88446	-787.14795	65.01446	964.37805	-824.68903	95.14439	1024.19604
2367	9.46400	-593.96509	1002.97382	857.70099	-424.69571	987.91486	772.64038	-463.70462	786.13043	726.90387	-443.25620	710.38062	725.95374	-422.73801	637.73962	735.67651	-366.24216	732.67096	742.33148	0.00000	0.00000	0.00000	-421.58856	512.23438	754.98486	-419.20825	318.50735	748.11310	0.00000	0.00000	0.00000	-380.85800	331.47556	760.35376	0.00000	0.00000	0.00000	-394.09964	96.32524	807.54938	-369.12634	123.75653	879.68219	-447.22400	41.06458	860.12415	-268.76517	37.31044	773.86523	-208.82977	49.51169	824.62775	-236.15639	36.58577	877.08472	-585.02313	999.32104	955.86664	-422.85385	961.92621	1027.47583	0.00000	0.00000	0.00000	-448.65305	725.53748	1080.18066	-440.93616	644.22400	1073.72852	-380.48035	733.13788	1043.23193	-455.04840	471.45538	1045.69385	-452.87070	481.00436	929.04218	-620.57068	394.20529	1059.49060	-637.62720	340.50760	1060.08997	-580.60217	348.58942	1053.46436	0.00000	0.00000	0.00000	-789.37634	259.15924	1019.69574	-764.30383	240.35477	940.45642	-845.29059	290.86646	971.39508	-795.44946	92.98877	917.93738	-781.14783	66.88997	965.59924	-818.26019	98.27856	1025.31958
2368	9.46800	-589.92596	1003.44537	856.85150	-420.43765	988.27240	772.09937	-460.78296	786.34241	726.27570	-440.73248	710.52423	725.31354	-420.55438	637.75940	734.87396	-363.56784	732.43695	741.58252	0.00000	0.00000	0.00000	-419.32541	512.39850	754.93372	-417.59415	318.79391	748.00104	0.00000	0.00000	0.00000	-379.42667	331.48026	760.45349	0.00000	0.00000	0.00000	-394.01007	96.38581	807.64264	-369.01859	123.78487	879.78589	-446.86462	41.08756	860.28424	-268.72095	37.32368	773.86707	-208.84953	49.46505	824.67389	-236.13921	36.54086	877.10956	-580.93115	999.89630	955.25580	-418.80902	962.84332	1027.05457	0.00000	0.00000	0.00000	-442.15726	726.27057	1079.33130	-433.54883	645.15997	1072.89929	-374.21896	734.66876	1042.58069	-445.11679	472.60782	1044.98694	-443.83063	482.11261	928.35822	-610.37164	395.79144	1059.65869	-627.70203	342.05048	1060.28552	-570.63727	349.98492	1052.88696	0.00000	0.00000	0.00000	-780.15076	261.91132	1020.51648	-755.31403	242.39844	941.19281	-834.99561	294.27847	971.69971	-788.37225	95.31171	919.09180	-775.33575	68.83788	967.06140	-811.64526	101.33785	1026.16553
2369	9.47200	-585.69263	1003.87897	856.23694	-416.19022	988.65649	771.40143	-457.97397	786.46503	725.70837	-438.16669	710.53717	724.56238	-418.29770	637.67102	734.06274	-361.16983	732.00800	740.93744	0.00000	0.00000	0.00000	-417.26382	512.47180	754.92523	-416.15567	318.96899	747.97552	0.00000	0.00000	0.00000	-377.88120	331.50989	760.52039	0.00000	0.00000	0.00000	-393.89017	96.43647	807.73145	-368.95831	123.79385	879.91376	-447.24277	41.12070	860.09601	-268.72000	37.31029	773.92078	-208.81194	49.41573	824.66620	-236.12810	36.50554	877.13544	-576.92822	1000.43066	954.54028	-414.85080	963.72119	1026.64490	0.00000	0.00000	0.00000	-435.67770	727.18042	1078.45557	-426.37250	646.23645	1072.18555	-367.65732	736.24969	1041.94519	-435.41104	473.84619	1044.26404	-434.62161	483.28220	927.54980	-600.38666	397.37531	1059.83887	-617.95935	343.74976	1060.29456	-560.83337	351.40262	1052.81677	0.00000	0.00000	0.00000	-771.08295	264.68051	1021.32391	-746.00848	244.63109	941.83728	-825.43555	297.38077	972.05701	-780.64600	97.66599	920.30573	-768.27258	71.28931	968.33752	-804.17773	104.61021	1027.45935
2370	9.47600	-581.74042	1004.28699	855.59894	-412.04883	988.89380	770.81897	-455.13150	786.57788	725.09796	-435.72629	710.57178	723.91779	-416.19275	637.57550	733.41138	-358.81290	731.64966	740.22327	0.00000	0.00000	0.00000	-415.25204	512.49188	754.86145	-414.68451	319.13480	747.89655	-423.13235	272.20071	764.42834	-376.39554	331.49063	760.56970	0.00000	0.00000	0.00000	-393.75894	96.43941	807.81561	-368.86313	123.78918	880.08105	-447.28406	41.15014	860.08051	-268.72461	37.28363	773.95270	-208.80998	49.33888	824.72083	-236.14445	36.46061	877.18750	-572.75024	1000.92499	953.89288	-411.01440	964.54712	1026.25745	0.00000	0.00000	0.00000	-429.52011	728.02094	1077.72766	-419.35724	647.26550	1071.42383	-360.66141	737.99597	1041.22900	-425.86420	475.15829	1043.78198	-425.77484	484.39648	926.85095	-590.43677	399.02649	1059.97949	-608.26758	345.49023	1060.50623	0.00000	0.00000	0.00000	0.00000	0.00000	0.00000	-762.04340	267.27542	1022.05255	-737.16870	246.85872	942.58801	-816.30817	300.14835	972.49634	-772.29620	100.01900	921.49451	-760.11676	73.78880	969.74042	-796.32715	107.52246	1028.95264
2371	9.48000	-577.63904	1004.68951	855.07513	-407.82016	989.14624	770.15729	-452.41553	786.69635	724.52716	-433.28674	710.58881	723.25385	-414.03043	637.47937	732.85773	-356.17599	731.37201	739.60193	0.00000	0.00000	0.00000	-413.15204	512.62988	754.70416	-413.30765	319.27371	747.83099	-421.57727	272.47311	764.06091	-375.09201	331.47922	760.60962	0.00000	0.00000	0.00000	-393.62750	96.51873	807.90295	-368.74084	123.77411	880.22131	-447.23447	41.13049	860.10516	-268.72647	37.24687	773.98969	-208.78207	49.26967	824.75464	-236.14821	36.37366	877.23236	-568.81836	1001.47705	953.42755	-406.96555	965.42859	1025.76001	0.00000	0.00000	0.00000	-423.24442	729.03125	1076.99939	-412.33688	648.29425	1070.65588	-354.49600	739.64685	1040.63318	-416.30756	476.37253	1042.97620	-416.63556	485.67899	925.99908	-580.68274	400.75583	1059.92700	-598.65729	347.22522	1060.51270	-541.28198	354.87195	1052.52014	0.00000	0.00000	0.00000	-753.09192	269.75189	1022.73059	-728.12207	249.09319	943.11749	-807.42078	302.55362	972.84979	-763.35693	102.30524	922.75269	-749.33319	77.35132	969.63300	-787.85553	110.20953	1030.00940
2372	9.48400	-573.54871	1005.12537	854.45801	-403.99951	989.27863	769.64703	-449.78082	786.80005	723.91577	-430.96320	710.63568	722.68054	-411.93582	637.48340	732.38800	-354.12201	730.80426	739.24060	0.00000	0.00000	0.00000	-411.25204	512.68390	754.57404	-411.94528	319.38986	747.75317	-420.75232	272.49649	764.12500	-373.65054	331.46481	760.61554	0.00000	0.00000	0.00000	-393.49997	96.57709	807.98291	-368.54950	123.78271	880.35468	-447.19156	41.09198	860.10443	-268.68390	37.23223	774.00861	-208.73949	49.18143	824.75098	-236.10718	36.30645	877.27783	-564.90570	1002.16840	952.78174	-402.94675	966.30670	1025.18896	0.00000	0.00000	0.00000	-417.23685	729.88702	1076.26257	-405.30255	649.20752	1069.72253	-347.23541	741.62146	1039.82056	-406.79562	477.79126	1042.30701	-407.69754	487.05005	925.24615	-570.79047	402.48593	1059.96802	-588.88794	349.07617	1060.54541	-531.57874	356.41898	1052.24597	0.00000	0.00000	0.00000	-744.01562	272.25986	1023.27692	-719.24017	251.41393	943.67950	-798.85089	304.72424	973.22656	-753.91785	104.62413	923.91003	-740.33905	79.75568	971.25165	-778.98236	112.48996	1032.66162
2373	9.48800	-568.57733	1005.15546	854.20831	-400.00119	989.45050	769.07733	-446.99033	786.95288	723.29742	-428.48953	710.68353	722.16858	-409.74121	637.50836	732.00458	-351.28964	730.81116	738.08710	0.00000	0.00000	0.00000	-409.54849	512.79767	754.43842	-410.41998	319.18939	747.87585	-419.59250	272.75156	763.96942	-372.44608	331.48047	760.56543	0.00000	0.00000	0.00000	-393.36093	96.70728	808.07550	-368.34384	123.79462	880.48938	-447.11569	41.09324	860.12323	-268.65665	37.21039	774.05792	-208.70833	49.11354	824.80774	-236.06601	36.22388	877.33667	-560.77972	1002.74731	952.34808	-398.79340	967.09027	1024.56799	0.00000	0.00000	0.00000	-410.84787	730.86566	1075.41736	-398.16306	650.00732	1068.90710	-340.54294	743.19696	1038.78247	-397.29242	479.00073	1041.56055	-398.88547	488.36420	924.47638	-560.98499	404.34338	1059.69885	-579.19092	350.86221	1060.55347	-522.01801	358.22195	1052.05273	0.00000	0.00000	0.00000	-734.99884	274.65964	1023.78082	-710.62036	253.82530	944.30249	-790.43573	306.64890	973.71625	-744.14569	106.69756	925.09058	-730.57074	82.23108	972.64435	-769.23779	114.72353	1033.95569
